<svg xmlns="http://www.w3.org/2000/svg" width="480" height="480" viewBox="0 0 480 480" role="img" aria-labelledby="title desc"><title id="title">弓を引く｜動作の図解</title><desc id="desc">衣服を着た中立的なマネキンによる、弓を引くの関節と動作を示す専用図解。完成イラストの作画見本ではありません。</desc><defs><linearGradient id="bg" x2="1" y2="1"><stop stop-color="#222744"/><stop offset="1" stop-color="#101929"/></linearGradient><linearGradient id="shirt" x2="1" y2="1"><stop stop-color="#b8a3ed"/><stop offset="1" stop-color="#8d86d0"/></linearGradient><radialGradient id="lampGlow"><stop stop-color="#ffdf87" stop-opacity=".38"/><stop offset="1" stop-color="#ffdf87" stop-opacity="0"/></radialGradient><marker id="arrow" markerWidth="8" markerHeight="8" refX="6" refY="3" orient="auto" markerUnits="strokeWidth"><path d="M0 0L6 3L0 6" fill="none" stroke="#6de6e0" stroke-width="1.3" stroke-linecap="round" stroke-linejoin="round"/></marker></defs><rect width="480" height="480" rx="28" fill="url(#bg)"/><rect x="14" y="14" width="452" height="452" rx="19" fill="none" stroke="#485379" stroke-width="1"/><rect x="165" y="25" width="149" height="32" rx="16" fill="#303654"/><text x="239" y="47" text-anchor="middle" font-family="Noto Sans JP,Hiragino Kaku Gothic ProN,Yu Gothic,sans-serif" font-size="17" fill="#f4e8ce">動作の図解</text><text x="434" y="47" text-anchor="end" font-size="17" fill="#6de6e0" font-family="sans-serif">070</text><g transform="translate(24 30) scale(.9)"><path d="M55 395H425" stroke="#3c4967" stroke-width="2"/><ellipse cx="240" cy="395" rx="101" ry="9" fill="#050a19" opacity=".4"/><polyline points="216,251 201,312 181,383" fill="none" stroke="#a69aef" stroke-width="19" stroke-linecap="round" stroke-linejoin="round" /><circle cx="201" cy="312" r="4" fill="#6de6e0" stroke="#172338" stroke-width="1.5"/><polyline points="176,383 197,386" fill="none" stroke="#f4e8ce" stroke-width="12" stroke-linecap="round" stroke-linejoin="round" /><polyline points="250,251 280,310 313,383" fill="none" stroke="#a69aef" stroke-width="19" stroke-linecap="round" stroke-linejoin="round" /><circle cx="280" cy="310" r="4" fill="#6de6e0" stroke="#172338" stroke-width="1.5"/><polyline points="308,383 329,386" fill="none" stroke="#f4e8ce" stroke-width="12" stroke-linecap="round" stroke-linejoin="round" /><polyline points="236,133 232.5,163" fill="none" stroke="#f4e8ce" stroke-width="13" stroke-linecap="round" stroke-linejoin="round" /><path d="M211,154 Q232.5,146 254,154 L250,251 Q233,259 216,251 Z" fill="url(#shirt)" stroke="#d7c9ff" stroke-width="2"/><polyline points="214,251 252,251" fill="none" stroke="#746aab" stroke-width="8" stroke-linecap="round" stroke-linejoin="round" /><polyline points="211,154 178,176 230,153" fill="none" stroke="#f4e8ce" stroke-width="13" stroke-linecap="round" stroke-linejoin="round" /><polyline points="211,154 199.45,161.7" fill="none" stroke="#a69aef" stroke-width="18" stroke-linecap="round" stroke-linejoin="round" /><circle cx="178" cy="176" r="4" fill="#6de6e0" stroke="#172338" stroke-width="1.5"/><ellipse cx="230" cy="153" rx="9" ry="7" fill="#f4e8ce"/><polyline points="254,154 304,158 352,160" fill="none" stroke="#f4e8ce" stroke-width="13" stroke-linecap="round" stroke-linejoin="round" /><polyline points="254,154 271.5,155.4" fill="none" stroke="#a69aef" stroke-width="18" stroke-linecap="round" stroke-linejoin="round" /><circle cx="304" cy="158" r="4" fill="#6de6e0" stroke="#172338" stroke-width="1.5"/><ellipse cx="352" cy="160" rx="9" ry="7" fill="#f4e8ce"/><g transform="rotate(0 236 112)"><circle cx="236" cy="112" r="24" fill="#f4e8ce" /><path d="M213,114 Q208,83 236,86 Q263,84 259,114 Q252,102 241,99 Q225,109 213,114" fill="#444161"/><circle cx="247" cy="115" r="2" fill="#161c31" /><path d="M257,113l7,7 -7,2" fill="#f4e8ce"/></g><path d="M355 75Q408 160 355 265" fill="none" stroke="#c4ad85" stroke-width="8" stroke-linecap="round"/><path d="M355 75L231 153L355 265" fill="none" stroke="#f4e8ce" stroke-width="2"/><path d="M231 151H390" stroke="#6de6e0" stroke-width="3"/><path d="M392 151L381 145V157Z" fill="#6de6e0"/><path d="M246 145l-14 5 14 7" fill="none" stroke="#6de6e0" stroke-width="2"/><ellipse cx="352" cy="160" rx="9" ry="7" fill="#f4e8ce"/><ellipse cx="230" cy="153" rx="9" ry="7" fill="#f4e8ce"/></g><rect x="23" y="415" width="434" height="45" rx="11" fill="#29324c"/><text x="240" y="444" text-anchor="middle" font-family="Noto Sans JP,Hiragino Kaku Gothic ProN,Yu Gothic,sans-serif" font-size="22" fill="#f4e8ce">弓を引く</text></svg>