<svg xmlns="http://www.w3.org/2000/svg" width="480" height="480" viewBox="0 0 480 480" role="img" aria-labelledby="title desc"><title id="title">灯りを前に掲げる｜動作の図解</title><desc id="desc">衣服を着た中立的なマネキンによる、灯りを前に掲げるの関節と動作を示す専用図解。完成イラストの作画見本ではありません。</desc><defs><linearGradient id="bg" x2="1" y2="1"><stop stop-color="#222744"/><stop offset="1" stop-color="#101929"/></linearGradient><linearGradient id="shirt" x2="1" y2="1"><stop stop-color="#b8a3ed"/><stop offset="1" stop-color="#8d86d0"/></linearGradient><radialGradient id="lampGlow"><stop stop-color="#ffdf87" stop-opacity=".38"/><stop offset="1" stop-color="#ffdf87" stop-opacity="0"/></radialGradient><marker id="arrow" markerWidth="8" markerHeight="8" refX="6" refY="3" orient="auto" markerUnits="strokeWidth"><path d="M0 0L6 3L0 6" fill="none" stroke="#6de6e0" stroke-width="1.3" stroke-linecap="round" stroke-linejoin="round"/></marker></defs><rect width="480" height="480" rx="28" fill="url(#bg)"/><rect x="14" y="14" width="452" height="452" rx="19" fill="none" stroke="#485379" stroke-width="1"/><rect x="165" y="25" width="149" height="32" rx="16" fill="#303654"/><text x="239" y="47" text-anchor="middle" font-family="Noto Sans JP,Hiragino Kaku Gothic ProN,Yu Gothic,sans-serif" font-size="17" fill="#f4e8ce">動作の図解</text><text x="434" y="47" text-anchor="end" font-size="17" fill="#6de6e0" font-family="sans-serif">066</text><g transform="translate(24 30) scale(.9)"><path d="M55 395H425" stroke="#3c4967" stroke-width="2"/><ellipse cx="240" cy="395" rx="101" ry="9" fill="#050a19" opacity=".4"/><circle cx="344" cy="237" r="66" fill="url(#lampGlow)"/><polyline points="201,243 194,309 185,383" fill="none" stroke="#a69aef" stroke-width="19" stroke-linecap="round" stroke-linejoin="round" /><circle cx="194" cy="309" r="4" fill="#6de6e0" stroke="#172338" stroke-width="1.5"/><polyline points="180,383 201,386" fill="none" stroke="#f4e8ce" stroke-width="12" stroke-linecap="round" stroke-linejoin="round" /><polyline points="236,243 247,309 263,383" fill="none" stroke="#a69aef" stroke-width="19" stroke-linecap="round" stroke-linejoin="round" /><circle cx="247" cy="309" r="4" fill="#6de6e0" stroke="#172338" stroke-width="1.5"/><polyline points="258,383 279,386" fill="none" stroke="#f4e8ce" stroke-width="12" stroke-linecap="round" stroke-linejoin="round" /><polyline points="219,126 218,155" fill="none" stroke="#f4e8ce" stroke-width="13" stroke-linecap="round" stroke-linejoin="round" /><path d="M193,146 Q218,138 243,146 L236,243 Q218.5,251 201,243 Z" fill="url(#shirt)" stroke="#d7c9ff" stroke-width="2"/><polyline points="199,243 238,243" fill="none" stroke="#746aab" stroke-width="8" stroke-linecap="round" stroke-linejoin="round" /><polyline points="193,146 177,216 185,260" fill="none" stroke="#f4e8ce" stroke-width="13" stroke-linecap="round" stroke-linejoin="round" /><polyline points="193,146 187.4,170.5" fill="none" stroke="#a69aef" stroke-width="18" stroke-linecap="round" stroke-linejoin="round" /><circle cx="177" cy="216" r="4" fill="#6de6e0" stroke="#172338" stroke-width="1.5"/><ellipse cx="185" cy="260" rx="9" ry="7" fill="#f4e8ce"/><polyline points="243,146 280,184 332,177" fill="none" stroke="#f4e8ce" stroke-width="13" stroke-linecap="round" stroke-linejoin="round" /><polyline points="243,146 255.95000000000002,159.3" fill="none" stroke="#a69aef" stroke-width="18" stroke-linecap="round" stroke-linejoin="round" /><circle cx="280" cy="184" r="4" fill="#6de6e0" stroke="#172338" stroke-width="1.5"/><ellipse cx="332" cy="177" rx="9" ry="7" fill="#f4e8ce"/><g transform="rotate(0 219 105)"><circle cx="219" cy="105" r="24" fill="#f4e8ce" /><path d="M196,107 Q191,76 219,79 Q246,77 242,107 Q235,95 224,92 Q208,102 196,107" fill="#444161"/><circle cx="211" cy="108" r="2" fill="#161c31" /><circle cx="227" cy="108" r="2" fill="#161c31" /><path d="M214,118q5,3 10,0" fill="none" stroke="#71606c" stroke-width="2"/></g><path d="M329 204Q329 174 348 178Q363 183 358 205" fill="none" stroke="#f4e8ce" stroke-width="5"/><rect x="324" y="203" width="42" height="56" rx="6" fill="#514776" stroke="#f4e8ce" stroke-width="3"/><rect x="331" y="211" width="28" height="39" rx="3" fill="#ffe5a0"/><path d="M345 203V259M324 229H366" stroke="#655176" stroke-width="3"/><path d="M379 209l15-8M382 237h19M378 263l15 10" stroke="#ffd990" stroke-width="3" stroke-linecap="round"/></g><rect x="23" y="415" width="434" height="45" rx="11" fill="#29324c"/><text x="240" y="444" text-anchor="middle" font-family="Noto Sans JP,Hiragino Kaku Gothic ProN,Yu Gothic,sans-serif" font-size="22" fill="#f4e8ce">灯りを前に掲げる</text></svg>