<svg xmlns="http://www.w3.org/2000/svg" width="480" height="480" viewBox="0 0 480 480" role="img" aria-labelledby="title desc"><title id="title">障害物を跳び越える｜動作の図解</title><desc id="desc">落ち着いた中立的な服装の成人による、障害物を跳び越えるの顔・髪・襟付きシャツ・パンツ・手指・靴を描いたオリジナル人物が、接地・握りと選択動作を示す専用イラスト図解。完成イラストの作画見本ではありません。</desc><defs><filter id="silhouetteOutline" x="-20%" y="-20%" width="140%" height="140%" color-interpolation-filters="sRGB"><feMorphology in="SourceAlpha" operator="dilate" radius=".7" result="edge"/><feFlood flood-color="#35374b" result="ink"/><feComposite in="ink" in2="edge" operator="in" result="border"/><feMerge><feMergeNode in="border"/><feMergeNode in="SourceGraphic"/></feMerge></filter><linearGradient id="bg" x2="1" y2="1"><stop stop-color="#222744"/><stop offset="1" stop-color="#101929"/></linearGradient><linearGradient id="shirt" gradientUnits="userSpaceOnUse" x1="150" y1="120" x2="300" y2="290"><stop stop-color="#e0d4f7"/><stop offset=".48" stop-color="#b3a0df"/><stop offset="1" stop-color="#8b79bd"/></linearGradient><linearGradient id="trousers" gradientUnits="userSpaceOnUse" x1="165" y1="225" x2="310" y2="390"><stop stop-color="#94a1be"/><stop offset=".6" stop-color="#7584a6"/><stop offset="1" stop-color="#53668c"/></linearGradient><linearGradient id="skin" x2="1" y2="1"><stop stop-color="#ffe8d5"/><stop offset=".58" stop-color="#f6d9c8"/><stop offset="1" stop-color="#e4b5a5"/></linearGradient><linearGradient id="hair" x2="1" y2="1"><stop stop-color="#8d8097"/><stop offset=".5" stop-color="#61586f"/><stop offset="1" stop-color="#48435e"/></linearGradient><linearGradient id="shoe" x2="1" y2="1"><stop stop-color="#fbf5eb"/><stop offset="1" stop-color="#bfc9d8"/></linearGradient><radialGradient id="lampGlow"><stop stop-color="#ffdf87" stop-opacity=".38"/><stop offset="1" stop-color="#ffdf87" stop-opacity="0"/></radialGradient><marker id="arrow" markerWidth="8" markerHeight="8" refX="6" refY="3" orient="auto" markerUnits="strokeWidth"><path d="M0 0L6 3L0 6" fill="none" stroke="#6de6e0" stroke-width="1.3" stroke-linecap="round" stroke-linejoin="round"/></marker></defs><rect width="480" height="480" rx="28" fill="url(#bg)"/><rect x="14" y="14" width="452" height="452" rx="19" fill="none" stroke="#485379" stroke-width="1"/><rect x="165" y="25" width="149" height="32" rx="16" fill="#303654"/><text x="239" y="47" text-anchor="middle" font-family="Noto Sans JP,Hiragino Kaku Gothic ProN,Yu Gothic,sans-serif" font-size="17" fill="#f4e8ce">POSE SAMPLE</text><text x="434" y="47" text-anchor="end" font-size="17" fill="#6de6e0" font-family="sans-serif">060</text><g transform="translate(24 30) scale(.9)"><path d="M55 395H425" stroke="#3c4967" stroke-width="2"/><ellipse cx="240" cy="395" rx="101" ry="9" fill="#050a19" opacity=".4"/><rect x="220" y="328" width="80" height="66" rx="5" fill="#586180" stroke="#6de6e0" stroke-width="3"/><path d="M231 340l13 15m9-15 13 15m9-15 13 15" stroke="#6de6e0" stroke-width="3"/><path d="M111 302Q229 168 389 295" fill="none" stroke="#6de6e0" stroke-width="3" stroke-linecap="round" stroke-dasharray="8 7" marker-end="url(#arrow)"/><g data-part="clothed-adult"><g data-part="trouser-leg" data-joints="231,222 196,275 217,300" data-radii="18.5,13,8.2"><g filter="url(#silhouetteOutline)"><path d="M215.56,211.81L185.15,267.84Q188.84,285.85 206.85,282.16L246.44,232.19Q241.19,206.56 215.56,211.81Z" fill="url(#trousers)"/><path d="M186.05,283.36L210.72,305.27Q222.27,306.28 223.28,294.73L205.95,266.64Q187.64,265.05 186.05,283.36Z" fill="url(#trousers)"/><circle cx="196" cy="275" r="13" fill="url(#trousers)" /></g><path d="M240.26,228.12L202.51,279.3" fill="none" stroke="#505f83" stroke-width="3.3" stroke-linecap="round" opacity=".22"/><path d="M201.97,269.98L220.77,296.84" fill="none" stroke="#505f83" stroke-width="3.3" stroke-linecap="round" opacity=".22"/><path d="M188.85,276q6.5,-3.9 13,0" fill="none" stroke="#505f83" stroke-width="1.05" opacity=".65"/></g><g data-part="shoe" transform="translate(217,300) rotate(0) scale(1 1)"><path d="M-10,-9L5,-9L8,-3Q15,-2 21,4Q25,9 20,11L-10,11Q-15,9 -13,3Z" fill="url(#shoe)" stroke="#35374b" stroke-width="1.45"/><path d="M-12,7Q3,10 22,7L20,12H-10Z" fill="#465165"/><path d="M-4,-4L6,-1M-5,0L7,3M-6,3L5,6" stroke="#909db1" stroke-width="1.3"/><path d="M10,1Q15,0 18,4M-10,-7L-9,4" fill="none" stroke="#fff" stroke-width="1.35"/></g><g data-part="trouser-leg" data-joints="264,222 323,266 364,296" data-radii="18.5,13,8.2"><g filter="url(#silhouetteOutline)"><path d="M252.94,236.83L315.23,276.42Q333.42,273.77 330.77,255.58L275.06,207.17Q249.17,210.94 252.94,236.83Z" fill="url(#trousers)"/><path d="M315.32,276.49L359.16,302.62Q370.62,300.84 368.84,289.38L330.68,255.51Q312.51,258.32 315.32,276.49Z" fill="url(#trousers)"/><circle cx="323" cy="266" r="13" fill="url(#trousers)" /></g><path d="M270.64,213.1L327.66,259.75" fill="none" stroke="#505f83" stroke-width="3.3" stroke-linecap="round" opacity=".22"/><path d="M327.61,259.71L366.91,292.03" fill="none" stroke="#505f83" stroke-width="3.3" stroke-linecap="round" opacity=".22"/><path d="M315.85,267q6.5,-3.9 13,0" fill="none" stroke="#505f83" stroke-width="1.05" opacity=".65"/></g><g data-part="shoe" transform="translate(364,296) rotate(0) scale(1 1)"><path d="M-10,-9L5,-9L8,-3Q15,-2 21,4Q25,9 20,11L-10,11Q-15,9 -13,3Z" fill="url(#shoe)" stroke="#35374b" stroke-width="1.45"/><path d="M-12,7Q3,10 22,7L20,12H-10Z" fill="#465165"/><path d="M-4,-4L6,-1M-5,0L7,3M-6,3L5,6" stroke="#909db1" stroke-width="1.3"/><path d="M10,1Q15,0 18,4M-10,-7L-9,4" fill="none" stroke="#fff" stroke-width="1.35"/></g><path data-part="trouser-waist" d="M222,209Q247.5,204 273,209L274,239Q247.5,246 221,239Z" fill="url(#trousers)" stroke="#35374b" stroke-width="1.3"/><path d="M247.5,225v13M227,225l10,5M268,225l-10,5" stroke="#56688d" stroke-width="1.1" fill="none"/><clipPath id="shirtClip"><path d="M210,146Q226,131 234,135Q242,144 250,135Q258,131 274,144Q273.65,178 274,225Q247.5,235 221,225Q215.3,179.1 210,146Z"/></clipPath><path data-part="shirt-body" d="M210,146Q226,131 234,135Q242,144 250,135Q258,131 274,144Q273.65,178 274,225Q247.5,235 221,225Q215.3,179.1 210,146Z" fill="url(#shirt)" stroke="#35374b" stroke-width="1.35"/><g clip-path="url(#shirtClip)"><path d="M265,161Q249,197 269,218Q257.5,227 242.5,229Q263,176 265,161Z" fill="#7567ad" opacity=".27"/><path d="M223,220Q247.5,228 272,220" fill="none" stroke="#eee2f9" stroke-width="2.1"/><path d="M220,187l12,6M251,200l12,10M229,209q10,-6 20,-3" fill="none" stroke="#7869a6" stroke-width="1.15" opacity=".7"/></g><g data-part="skin-arm" data-joints="217,144 181,119 184,76" data-radii="13.2,10.2,5.7"><g filter="url(#silhouetteOutline)"><path d="M224.53,133.16L186.82,110.62Q172.62,113.18 175.18,127.38L209.47,154.84Q227.84,151.53 224.53,133.16Z" fill="url(#skin)"/><path d="M191.18,119.71L189.69,76.4Q184.4,70.31 178.31,75.6L170.82,118.29Q180.29,129.18 191.18,119.71Z" fill="url(#skin)"/><circle cx="181" cy="119" r="10.2" fill="url(#skin)" /></g><path d="M212.48,150.51L177.51,124.03" fill="none" stroke="#c9938a" stroke-width="3.3" stroke-linecap="round" opacity=".22"/><path d="M174.89,118.57L180.59,75.76" fill="none" stroke="#c9938a" stroke-width="3.3" stroke-linecap="round" opacity=".22"/><path d="M175.39,120q5.1,-3.0599999999999996 10.2,0" fill="none" stroke="#c9938a" stroke-width="1.05" opacity=".65"/></g><g data-part="shirt-sleeve" data-joints="217,144 209.26,138.625 201.51999999999998,133.25" data-radii="16,15,13.3"><g><path d="M226.13,130.86L217.82,126.3Q196.94,130.07 200.7,150.95L207.87,157.14Q230.14,153.13 226.13,130.86Z" fill="url(#shirt)"/><path d="M217.82,126.3L209.11,122.33Q190.6,125.66 193.93,144.17L200.7,150.95Q221.58,147.18 217.82,126.3Z" fill="url(#shirt)"/><circle cx="209.26" cy="138.625" r="15" fill="url(#shirt)" /></g><path d="M211.52,151.89L204.13,146.02" fill="none" stroke="#7664a4" stroke-width="3.3" stroke-linecap="round" opacity=".22"/><path d="M204.13,146.02L196.97,139.8" fill="none" stroke="#7664a4" stroke-width="3.3" stroke-linecap="round" opacity=".22"/><path d="M226.13,130.86L217.82,126.3M200.7,150.95L207.87,157.14" stroke="#35374b" stroke-width="1.25" fill="none"/><path d="M217.82,126.3L209.11,122.33M193.93,144.17L200.7,150.95M209.11,122.33Q190.6,125.66 193.93,144.17" stroke="#35374b" stroke-width="1.25" fill="none"/><path d="M201.01,139.625q7.5,-4.5 15,0" fill="none" stroke="#7664a4" stroke-width="1.05" opacity=".65"/></g><path d="M208.82106636154037,122.73646443938182Q201.51999999999998,134.75 194.2189336384596,143.76353556061818" stroke="#e9dff5" stroke-width="2.5" fill="none"/><path d="M212.45964935641706,134.7595878861754l-6.570959725386366,-4.563166475962754" stroke="#d5c6e7" stroke-width="1.1" opacity=".6"/><g data-part="skin-arm" data-joints="267,142 304,116 321,84" data-radii="13.2,10.2,5.7"><g filter="url(#silhouetteOutline)"><path d="M274.59,152.8L309.86,124.35Q312.35,110.14 298.14,107.65L259.41,131.2Q256.2,149.59 274.59,152.8Z" fill="url(#skin)"/><path d="M313.01,120.79L326.03,86.67Q323.67,78.97 315.97,81.33L294.99,111.21Q299.21,125.01 313.01,120.79Z" fill="url(#skin)"/><circle cx="304" cy="116" r="10.2" fill="url(#skin)" /></g><path d="M262.45,135.52L300.48,110.99" fill="none" stroke="#c9938a" stroke-width="3.3" stroke-linecap="round" opacity=".22"/><path d="M298.6,113.13L317.98,82.4" fill="none" stroke="#c9938a" stroke-width="3.3" stroke-linecap="round" opacity=".22"/><path d="M298.39,117q5.1,-3.0599999999999996 10.2,0" fill="none" stroke="#c9938a" stroke-width="1.05" opacity=".65"/></g><g data-part="shirt-sleeve" data-joints="267,142 274.955,136.41 282.90999999999997,130.82" data-radii="16,15,13.3"><g><path d="M276.2,155.09L283.58,148.68Q287.23,127.79 266.33,124.14L257.8,128.91Q253.91,151.2 276.2,155.09Z" fill="url(#shirt)"/><path d="M283.58,148.68L290.56,141.7Q293.79,123.17 275.26,119.94L266.33,124.14Q262.68,145.03 283.58,148.68Z" fill="url(#shirt)"/><circle cx="274.955" cy="136.41" r="15" fill="url(#shirt)" /></g><path d="M261.48,134.15L269.78,129.05" fill="none" stroke="#7664a4" stroke-width="3.3" stroke-linecap="round" opacity=".22"/><path d="M269.78,129.05L278.32,124.29" fill="none" stroke="#7664a4" stroke-width="3.3" stroke-linecap="round" opacity=".22"/><path d="M276.2,155.09L283.58,148.68M266.33,124.14L257.8,128.91" stroke="#35374b" stroke-width="1.25" fill="none"/><path d="M283.58,148.68L290.56,141.7M275.26,119.94L266.33,124.14M290.56,141.7Q293.79,123.17 275.26,119.94" stroke="#35374b" stroke-width="1.25" fill="none"/><path d="M266.705,137.41q7.5,-4.5 15,0" fill="none" stroke="#7664a4" stroke-width="1.05" opacity=".65"/></g><path d="M290.2693026139251,141.29285371981652Q282.90999999999997,132.32 275.55069738607483,120.34714628018347" stroke="#e9dff5" stroke-width="2.5" fill="none"/><path d="M277.23845285531047,140.91644883388724l6.545533574885328,-4.599564133703203" stroke="#d5c6e7" stroke-width="1.1" opacity=".6"/><path data-part="neck" d="M237,119L234,137Q242,147 250,137L251,119Z" fill="url(#skin)" stroke="#35374b" stroke-width="1.05"/><path d="M238,125q6,6 13,0l-2,7q-7,2 -12,-2Z" fill="#c9938a" opacity=".3"/><path data-part="collar" d="M233,134L227,141L238,154L242,145L246,154L257,141L251,134Q242,145 233,134Z" fill="#f1eaf8" stroke="#716888" stroke-width="1"/><path d="M242,146L247.5,219" stroke="#a397c4" stroke-width="1" opacity=".7"/><circle cx="243.375" cy="162.75" r="1.3" fill="#f0e9fc" /><circle cx="244.75" cy="182.5" r="1.3" fill="#f0e9fc" /><circle cx="246.125" cy="202.25" r="1.3" fill="#f0e9fc" /><g data-part="head" data-center="244,103" data-direction="front" transform="rotate(0 244 103)"><path d="M223,105Q214,91 226,77Q239,67 251,74Q271,75 269,96L268,120L259,128Q244,132 226,123Z" fill="url(#hair)" stroke="#35374b" stroke-width="1.35"/><ellipse cx="225" cy="110" rx="4" ry="6" fill="#f6d9c8" stroke="#c9938a" stroke-width=".9"/><ellipse cx="263" cy="110" rx="4" ry="6" fill="#f6d9c8" stroke="#c9938a" stroke-width=".9"/><path d="M226,91Q244,80 262,91L262,112Q260,121 251,127Q244,131 237,127Q228,121 226,112Z" fill="url(#skin)" stroke="#35374b" stroke-width="1.05"/><path d="M258,96Q264,119 246,127Q261,126 262,112V97Z" fill="#c9938a" opacity=".23"/><path d="M222,107Q213,87 228,75Q242,67 252,75Q272,76 268,111L262,104L260,94Q250,84 245,95L240,100L239,91Q234,98 229,100L226,112Z" fill="url(#hair)"/><path d="M229,84Q237,75 246,79M253,80Q263,84 263,95" fill="none" stroke="#a597ac" stroke-width="1.2" opacity=".6"/><path d="M232,102q4,-2 8,0M248,102q4,-2 8,0" stroke="#4d435b" fill="none" stroke-width="1.1"/><path d="M232,107Q236,103.5 240,107Q236,111 232,107Z" fill="#fff5ee"/><path d="M232,107Q236,103.5 240,107" fill="none" stroke="#35374b" stroke-width="1.15"/><ellipse cx="236" cy="107.8" rx="2.2" ry="2.8" fill="#657488"/><ellipse cx="236" cy="107.8" rx="1.05" ry="1.6" fill="#35374b"/><circle cx="235.3" cy="106.5" r="0.7" fill="#fff" /><path d="M248,107Q252,103.5 256,107Q252,111 248,107Z" fill="#fff5ee"/><path d="M248,107Q252,103.5 256,107" fill="none" stroke="#35374b" stroke-width="1.15"/><ellipse cx="252" cy="107.8" rx="2.2" ry="2.8" fill="#657488"/><ellipse cx="252" cy="107.8" rx="1.05" ry="1.6" fill="#35374b"/><circle cx="251.3" cy="106.5" r="0.7" fill="#fff" /><path d="M244,110l-1,6 2,1M240,121q4,1.8 8,0" fill="none" stroke="#a77773" stroke-width="1"/><path d="M231,116h4M253,116h4" stroke="#eaa5a0" stroke-width="1.5" opacity=".5"/></g><g data-part="hand" data-gesture="auto" transform="translate(184,76) rotate(3.9909130984297803)"><path d="M-5,7Q-7,1 -5,-5L-4,-8Q-3,-11 -1.5,-9L-1,-4L-.5,-10Q1,-13 2,-10L2,-4L3,-9Q5,-11 5.7,-8L5.5,-3L6.7,-6Q9,-8 9,-5L8,1Q8,8 3,10L-3,10Z" fill="url(#skin)" stroke="#35374b" stroke-width="1.1"/><path d="M-4,1L-8,-4Q-11,-6 -11,-2L-7,5Q-5,9 -1,9" fill="#f6d9c8" stroke="#35374b" stroke-width="1.05"/><path d="M-2,4Q2,1 5,3M-1,7L3,7" fill="none" stroke="#c9938a" stroke-width=".9"/></g><g data-part="hand" data-gesture="auto" transform="translate(321,84) rotate(27.979474388480146)"><path d="M-5,7Q-7,1 -5,-5L-4,-8Q-3,-11 -1.5,-9L-1,-4L-.5,-10Q1,-13 2,-10L2,-4L3,-9Q5,-11 5.7,-8L5.5,-3L6.7,-6Q9,-8 9,-5L8,1Q8,8 3,10L-3,10Z" fill="url(#skin)" stroke="#35374b" stroke-width="1.1"/><path d="M-4,1L-8,-4Q-11,-6 -11,-2L-7,5Q-5,9 -1,9" fill="#f6d9c8" stroke="#35374b" stroke-width="1.05"/><path d="M-2,4Q2,1 5,3M-1,7L3,7" fill="none" stroke="#c9938a" stroke-width=".9"/></g></g></g><rect x="23" y="415" width="434" height="45" rx="11" fill="#29324c"/><text x="240" y="444" text-anchor="middle" font-family="Noto Sans JP,Hiragino Kaku Gothic ProN,Yu Gothic,sans-serif" font-size="22" fill="#f4e8ce">Jump over an obstacle</text></svg>