<svg xmlns="http://www.w3.org/2000/svg" width="480" height="480" viewBox="0 0 480 480" role="img" aria-labelledby="title desc"><title id="title">両手を背中で組む｜動作の図解</title><desc id="desc">落ち着いた中立的な服装の成人による、両手を背中で組むの顔・髪・襟付きシャツ・パンツ・手指・靴を描いたオリジナル人物が、接地・握りと選択動作を示す専用イラスト図解。完成イラストの作画見本ではありません。</desc><defs><filter id="silhouetteOutline" x="-20%" y="-20%" width="140%" height="140%" color-interpolation-filters="sRGB"><feMorphology in="SourceAlpha" operator="dilate" radius=".7" result="edge"/><feFlood flood-color="#35374b" result="ink"/><feComposite in="ink" in2="edge" operator="in" result="border"/><feMerge><feMergeNode in="border"/><feMergeNode in="SourceGraphic"/></feMerge></filter><linearGradient id="bg" x2="1" y2="1"><stop stop-color="#222744"/><stop offset="1" stop-color="#101929"/></linearGradient><linearGradient id="shirt" gradientUnits="userSpaceOnUse" x1="150" y1="120" x2="300" y2="290"><stop stop-color="#e0d4f7"/><stop offset=".48" stop-color="#b3a0df"/><stop offset="1" stop-color="#8b79bd"/></linearGradient><linearGradient id="trousers" gradientUnits="userSpaceOnUse" x1="165" y1="225" x2="310" y2="390"><stop stop-color="#94a1be"/><stop offset=".6" stop-color="#7584a6"/><stop offset="1" stop-color="#53668c"/></linearGradient><linearGradient id="skin" x2="1" y2="1"><stop stop-color="#ffe8d5"/><stop offset=".58" stop-color="#f6d9c8"/><stop offset="1" stop-color="#e4b5a5"/></linearGradient><linearGradient id="hair" x2="1" y2="1"><stop stop-color="#8d8097"/><stop offset=".5" stop-color="#61586f"/><stop offset="1" stop-color="#48435e"/></linearGradient><linearGradient id="shoe" x2="1" y2="1"><stop stop-color="#fbf5eb"/><stop offset="1" stop-color="#bfc9d8"/></linearGradient><radialGradient id="lampGlow"><stop stop-color="#ffdf87" stop-opacity=".38"/><stop offset="1" stop-color="#ffdf87" stop-opacity="0"/></radialGradient><marker id="arrow" markerWidth="8" markerHeight="8" refX="6" refY="3" orient="auto" markerUnits="strokeWidth"><path d="M0 0L6 3L0 6" fill="none" stroke="#6de6e0" stroke-width="1.3" stroke-linecap="round" stroke-linejoin="round"/></marker></defs><rect width="480" height="480" rx="28" fill="url(#bg)"/><rect x="14" y="14" width="452" height="452" rx="19" fill="none" stroke="#485379" stroke-width="1"/><rect x="165" y="25" width="149" height="32" rx="16" fill="#303654"/><text x="239" y="47" text-anchor="middle" font-family="Noto Sans JP,Hiragino Kaku Gothic ProN,Yu Gothic,sans-serif" font-size="17" fill="#f4e8ce">POSE SAMPLE</text><text x="434" y="47" text-anchor="end" font-size="17" fill="#6de6e0" font-family="sans-serif">049</text><g transform="translate(24 30) scale(.9)"><path d="M55 395H425" stroke="#3c4967" stroke-width="2"/><ellipse cx="240" cy="395" rx="101" ry="9" fill="#050a19" opacity=".4"/><g data-part="clothed-adult"><g data-part="trouser-leg" data-joints="222,243 220,309 210,383" data-radii="18.5,13,8.2"><g filter="url(#silhouetteOutline)"><path d="M203.51,242.44L207.01,308.61Q219.61,321.99 232.99,309.39L240.49,243.56Q222.56,224.51 203.51,242.44Z" fill="url(#trousers)"/><path d="M207.12,307.26L201.87,381.9Q208.9,391.13 218.13,384.1L232.88,310.74Q221.74,296.12 207.12,307.26Z" fill="url(#trousers)"/><circle cx="220" cy="309" r="13" fill="url(#trousers)" /></g><path d="M233.09,243.34L227.8,309.24" fill="none" stroke="#505f83" stroke-width="3.3" stroke-linecap="round" opacity=".22"/><path d="M227.73,310.04L214.88,383.66" fill="none" stroke="#505f83" stroke-width="3.3" stroke-linecap="round" opacity=".22"/><path d="M212.85,310q6.5,-3.9 13,0" fill="none" stroke="#505f83" stroke-width="1.05" opacity=".65"/></g><g data-part="shoe" transform="translate(210,383) rotate(0) scale(1 1)"><path d="M-10,-9L5,-9L8,-3Q15,-2 21,4Q25,9 20,11L-10,11Q-15,9 -13,3Z" fill="url(#shoe)" stroke="#35374b" stroke-width="1.45"/><path d="M-12,7Q3,10 22,7L20,12H-10Z" fill="#465165"/><path d="M-4,-4L6,-1M-5,0L7,3M-6,3L5,6" stroke="#909db1" stroke-width="1.3"/><path d="M10,1Q15,0 18,4M-10,-7L-9,4" fill="none" stroke="#fff" stroke-width="1.35"/></g><g data-part="trouser-leg" data-joints="258,243 269,311 278,383" data-radii="18.5,13,8.2"><g filter="url(#silhouetteOutline)"><path d="M239.74,245.95L256.17,313.08Q271.08,323.83 281.83,308.92L276.26,240.05Q255.05,224.74 239.74,245.95Z" fill="url(#trousers)"/><path d="M256.1,312.61L269.86,384.02Q279.02,391.14 286.14,381.98L281.9,309.39Q267.39,298.1 256.1,312.61Z" fill="url(#trousers)"/><circle cx="269" cy="311" r="13" fill="url(#trousers)" /></g><path d="M268.96,241.23L276.7,309.75" fill="none" stroke="#505f83" stroke-width="3.3" stroke-linecap="round" opacity=".22"/><path d="M276.74,310.03L282.88,382.39" fill="none" stroke="#505f83" stroke-width="3.3" stroke-linecap="round" opacity=".22"/><path d="M261.85,312q6.5,-3.9 13,0" fill="none" stroke="#505f83" stroke-width="1.05" opacity=".65"/></g><g data-part="shoe" transform="translate(278,383) rotate(0) scale(1 1)"><path d="M-10,-9L5,-9L8,-3Q15,-2 21,4Q25,9 20,11L-10,11Q-15,9 -13,3Z" fill="url(#shoe)" stroke="#35374b" stroke-width="1.45"/><path d="M-12,7Q3,10 22,7L20,12H-10Z" fill="#465165"/><path d="M-4,-4L6,-1M-5,0L7,3M-6,3L5,6" stroke="#909db1" stroke-width="1.3"/><path d="M10,1Q15,0 18,4M-10,-7L-9,4" fill="none" stroke="#fff" stroke-width="1.35"/></g><path data-part="trouser-waist" d="M213,230Q240,225 267,230L268,260Q240,267 212,260Z" fill="url(#trousers)" stroke="#35374b" stroke-width="1.3"/><path d="M240,246v13M218,246l10,5M262,246l-10,5" stroke="#56688d" stroke-width="1.1" fill="none"/><clipPath id="shirtClip"><path d="M208,148Q224,134 232,138Q240,147 248,138Q256,134 272,148Q269.85,189.65 268,246Q240,256 212,246Q210.15,189.65 208,148Z"/></clipPath><path data-part="shirt-body" d="M208,148Q224,134 232,138Q240,147 248,138Q256,134 272,148Q269.85,189.65 268,246Q240,256 212,246Q210.15,189.65 208,148Z" fill="url(#shirt)" stroke="#35374b" stroke-width="1.35"/><g clip-path="url(#shirtClip)"><path d="M263,165Q247,200 263,239Q250,248 235,250Q261,179 263,165Z" fill="#7567ad" opacity=".27"/><path d="M214,241Q240,249 266,241" fill="none" stroke="#eee2f9" stroke-width="2.1"/><path d="M218,189l12,6M245,221l12,10M220,230q10,-6 20,-3" fill="none" stroke="#7869a6" stroke-width="1.15" opacity=".7"/></g><g data-part="skin-arm" data-joints="215,146 192,199 239,222" data-radii="13.2,10.2,5.7"><g filter="url(#silhouetteOutline)"><path d="M202.89,140.75L182.64,194.94Q187.94,208.36 201.36,203.06L227.11,151.25Q220.25,133.89 202.89,140.75Z" fill="url(#skin)"/><path d="M187.52,208.16L236.49,227.12Q244.12,224.51 241.51,216.88L196.48,189.84Q182.84,194.52 187.52,208.16Z" fill="url(#skin)"/><circle cx="192" cy="199" r="10.2" fill="url(#skin)" /></g><path d="M222.27,149.15L197.61,201.44" fill="none" stroke="#c9938a" stroke-width="3.3" stroke-linecap="round" opacity=".22"/><path d="M194.69,193.5L240.5,218.93" fill="none" stroke="#c9938a" stroke-width="3.3" stroke-linecap="round" opacity=".22"/><path d="M186.39,200q5.1,-3.0599999999999996 10.2,0" fill="none" stroke="#c9938a" stroke-width="1.05" opacity=".65"/></g><g data-part="shirt-sleeve" data-joints="215,146 210.055,157.39499999999998 205.10999999999999,168.79" data-radii="16,15,13.3"><g><path d="M200.32,139.63L196.29,151.42Q204.08,171.16 223.82,163.37L229.68,152.37Q221.37,131.32 200.32,139.63Z" fill="url(#shirt)"/><path d="M196.29,151.42L192.91,163.5Q199.82,180.99 217.31,174.08L223.82,163.37Q216.03,143.63 196.29,151.42Z" fill="url(#shirt)"/><circle cx="210.055" cy="157.39499999999998" r="15" fill="url(#shirt)" /></g><path d="M223.81,149.82L218.31,160.98" fill="none" stroke="#7664a4" stroke-width="3.3" stroke-linecap="round" opacity=".22"/><path d="M218.31,160.98L212.43,171.97" fill="none" stroke="#7664a4" stroke-width="3.3" stroke-linecap="round" opacity=".22"/><path d="M200.32,139.63L196.29,151.42M223.82,163.37L229.68,152.37" stroke="#35374b" stroke-width="1.25" fill="none"/><path d="M196.29,151.42L192.91,163.5M217.31,174.08L223.82,163.37M192.91,163.5Q199.82,180.99 217.31,174.08" stroke="#35374b" stroke-width="1.25" fill="none"/><path d="M201.805,158.39499999999998q7.5,-4.5 15,0" fill="none" stroke="#7664a4" stroke-width="1.05" opacity=".65"/></g><path d="M193.3679838579702,163.6944080893078Q205.10999999999999,170.29 216.85201614202978,173.88559191069217" stroke="#e9dff5" stroke-width="2.5" fill="none"/><path d="M206.83043688231416,152.26563950975057l-3.184744944182611,7.338760088768625" stroke="#d5c6e7" stroke-width="1.1" opacity=".6"/><g data-part="skin-arm" data-joints="265,146 288,199 244,222" data-radii="13.2,10.2,5.7"><g filter="url(#silhouetteOutline)"><path d="M252.89,151.25L278.64,203.06Q292.06,208.36 297.36,194.94L277.11,140.75Q259.75,133.89 252.89,151.25Z" fill="url(#skin)"/><path d="M283.27,189.96L241.36,216.95Q238.95,224.64 246.64,227.05L292.73,208.04Q297.04,194.27 283.27,189.96Z" fill="url(#skin)"/><circle cx="288" cy="199" r="10.2" fill="url(#skin)" /></g><path d="M272.27,142.85L293.61,196.56" fill="none" stroke="#c9938a" stroke-width="3.3" stroke-linecap="round" opacity=".22"/><path d="M290.84,204.42L245.58,225.03" fill="none" stroke="#c9938a" stroke-width="3.3" stroke-linecap="round" opacity=".22"/><path d="M282.39,200q5.1,-3.0599999999999996 10.2,0" fill="none" stroke="#c9938a" stroke-width="1.05" opacity=".65"/></g><g data-part="shirt-sleeve" data-joints="265,146 269.945,157.39499999999998 274.89,168.79" data-radii="16,15,13.3"><g><path d="M250.32,152.37L256.18,163.37Q275.92,171.16 283.71,151.42L279.68,139.63Q258.63,131.32 250.32,152.37Z" fill="url(#shirt)"/><path d="M256.18,163.37L262.69,174.08Q280.18,180.99 287.09,163.5L283.71,151.42Q263.97,143.63 256.18,163.37Z" fill="url(#shirt)"/><circle cx="269.945" cy="157.39499999999998" r="15" fill="url(#shirt)" /></g><path d="M273.81,142.18L278.2,153.81" fill="none" stroke="#7664a4" stroke-width="3.3" stroke-linecap="round" opacity=".22"/><path d="M278.2,153.81L282.21,165.61" fill="none" stroke="#7664a4" stroke-width="3.3" stroke-linecap="round" opacity=".22"/><path d="M250.32,152.37L256.18,163.37M283.71,151.42L279.68,139.63" stroke="#35374b" stroke-width="1.25" fill="none"/><path d="M256.18,163.37L262.69,174.08M287.09,163.5L283.71,151.42M262.69,174.08Q280.18,180.99 287.09,163.5" stroke="#35374b" stroke-width="1.25" fill="none"/><path d="M261.695,158.39499999999998q7.5,-4.5 15,0" fill="none" stroke="#7664a4" stroke-width="1.05" opacity=".65"/></g><path d="M263.1479838579702,173.88559191069217Q274.89,170.29 286.6320161420298,163.6944080893078" stroke="#e9dff5" stroke-width="2.5" fill="none"/><path d="M263.99611300672507,156.24657068997882l3.184744944182611,7.338760088768625" stroke="#d5c6e7" stroke-width="1.1" opacity=".6"/><path data-part="neck" d="M233,121L232,140Q240,150 248,140L247,121Z" fill="url(#skin)" stroke="#35374b" stroke-width="1.05"/><path d="M234,127q6,6 13,0l-2,7q-7,2 -12,-2Z" fill="#c9938a" opacity=".3"/><path data-part="collar" d="M231,137L225,144L236,157L240,148L244,157L255,144L249,137Q240,148 231,137Z" fill="#f1eaf8" stroke="#716888" stroke-width="1"/><path d="M240,149L240,240" stroke="#a397c4" stroke-width="1" opacity=".7"/><circle cx="240" cy="170.25" r="1.3" fill="#f0e9fc" /><circle cx="240" cy="194.5" r="1.3" fill="#f0e9fc" /><circle cx="240" cy="218.75" r="1.3" fill="#f0e9fc" /><g data-part="head" data-center="240,105" data-direction="back" transform="rotate(0 240 105)"><path d="M219,107Q210,93 222,79Q235,69 247,76Q267,77 265,98L264,122L255,130Q240,134 222,125Z" fill="url(#hair)" stroke="#35374b" stroke-width="1.35"/><path d="M223,86Q219,107 229,122M234,81Q231,104 239,125M246,82Q255,104 250,123M256,90Q263,106 257,119" fill="none" stroke="#8b809c" stroke-width="1.1" opacity=".65"/></g><g data-part="hand" data-gesture="grasp" transform="translate(239,222) rotate(116.07535558394876)"><path d="M-6,-7Q-3,-11 3,-10Q10,-7 9,2Q8,10 1,11Q-8,11 -9,3L-8,-3Z" fill="url(#skin)" stroke="#35374b" stroke-width="1.15"/><path d="M-5,-5Q0,-7 5,-5M-6,-1Q0,-4 6,-1M-5,3Q0,0 6,3M-3,7Q1,4 5,6" fill="none" stroke="#c9938a" stroke-width="1"/><path d="M-7,-5Q-12,-6 -12,-1L-8,5Q-5,7 -1,3L3,0" fill="#f6d9c8" stroke="#35374b" stroke-width="1.05"/></g><g data-part="hand" data-gesture="grasp" transform="translate(244,222) rotate(-117.59729586864371)"><path d="M-6,-7Q-3,-11 3,-10Q10,-7 9,2Q8,10 1,11Q-8,11 -9,3L-8,-3Z" fill="url(#skin)" stroke="#35374b" stroke-width="1.15"/><path d="M-5,-5Q0,-7 5,-5M-6,-1Q0,-4 6,-1M-5,3Q0,0 6,3M-3,7Q1,4 5,6" fill="none" stroke="#c9938a" stroke-width="1"/><path d="M-7,-5Q-12,-6 -12,-1L-8,5Q-5,7 -1,3L3,0" fill="#f6d9c8" stroke="#35374b" stroke-width="1.05"/></g></g><path d="M232 219l16 8m-13-2 11-7" stroke="#161c31" stroke-width="2"/><text x="344" y="162" fill="#6de6e0" font-size="16" font-family="sans-serif" text-anchor="middle">BACK VIEW</text><path d="M340 171Q309 191 254 219" fill="none" stroke="#6de6e0" stroke-width="3" stroke-linecap="round"  marker-end="url(#arrow)"/></g><rect x="23" y="415" width="434" height="45" rx="11" fill="#29324c"/><text x="240" y="444" text-anchor="middle" font-family="Noto Sans JP,Hiragino Kaku Gothic ProN,Yu Gothic,sans-serif" font-size="22" fill="#f4e8ce">Hands behind back</text></svg>