<svg xmlns="http://www.w3.org/2000/svg" width="480" height="480" viewBox="0 0 480 480" role="img" aria-labelledby="title desc"><title id="title">流れる布を片手でつかむ｜動作の図解</title><desc id="desc">落ち着いた中立的な服装の成人による、流れる布を片手でつかむの顔・髪・襟付きシャツ・パンツ・手指・靴を描いたオリジナル人物が、接地・握りと選択動作を示す専用イラスト図解。完成イラストの作画見本ではありません。</desc><defs><filter id="silhouetteOutline" x="-20%" y="-20%" width="140%" height="140%" color-interpolation-filters="sRGB"><feMorphology in="SourceAlpha" operator="dilate" radius=".7" result="edge"/><feFlood flood-color="#35374b" result="ink"/><feComposite in="ink" in2="edge" operator="in" result="border"/><feMerge><feMergeNode in="border"/><feMergeNode in="SourceGraphic"/></feMerge></filter><linearGradient id="bg" x2="1" y2="1"><stop stop-color="#222744"/><stop offset="1" stop-color="#101929"/></linearGradient><linearGradient id="shirt" gradientUnits="userSpaceOnUse" x1="150" y1="120" x2="300" y2="290"><stop stop-color="#e0d4f7"/><stop offset=".48" stop-color="#b3a0df"/><stop offset="1" stop-color="#8b79bd"/></linearGradient><linearGradient id="trousers" gradientUnits="userSpaceOnUse" x1="165" y1="225" x2="310" y2="390"><stop stop-color="#94a1be"/><stop offset=".6" stop-color="#7584a6"/><stop offset="1" stop-color="#53668c"/></linearGradient><linearGradient id="skin" x2="1" y2="1"><stop stop-color="#ffe8d5"/><stop offset=".58" stop-color="#f6d9c8"/><stop offset="1" stop-color="#e4b5a5"/></linearGradient><linearGradient id="hair" x2="1" y2="1"><stop stop-color="#8d8097"/><stop offset=".5" stop-color="#61586f"/><stop offset="1" stop-color="#48435e"/></linearGradient><linearGradient id="shoe" x2="1" y2="1"><stop stop-color="#fbf5eb"/><stop offset="1" stop-color="#bfc9d8"/></linearGradient><radialGradient id="lampGlow"><stop stop-color="#ffdf87" stop-opacity=".38"/><stop offset="1" stop-color="#ffdf87" stop-opacity="0"/></radialGradient><marker id="arrow" markerWidth="8" markerHeight="8" refX="6" refY="3" orient="auto" markerUnits="strokeWidth"><path d="M0 0L6 3L0 6" fill="none" stroke="#6de6e0" stroke-width="1.3" stroke-linecap="round" stroke-linejoin="round"/></marker></defs><rect width="480" height="480" rx="28" fill="url(#bg)"/><rect x="14" y="14" width="452" height="452" rx="19" fill="none" stroke="#485379" stroke-width="1"/><rect x="165" y="25" width="149" height="32" rx="16" fill="#303654"/><text x="239" y="47" text-anchor="middle" font-family="Noto Sans JP,Hiragino Kaku Gothic ProN,Yu Gothic,sans-serif" font-size="17" fill="#f4e8ce">POSE SAMPLE</text><text x="434" y="47" text-anchor="end" font-size="17" fill="#6de6e0" font-family="sans-serif">064</text><g transform="translate(24 30) scale(.9)"><path d="M55 395H425" stroke="#3c4967" stroke-width="2"/><ellipse cx="240" cy="395" rx="101" ry="9" fill="#050a19" opacity=".4"/><path d="M321 178Q354 159 366 205Q384 244 438 222Q418 280 379 269Q353 264 354 223Q347 198 321 190Z" fill="#9a89dd" stroke="#6de6e0" stroke-width="3"/><path d="M331 187Q360 190 365 231Q385 260 422 242" fill="none" stroke="#d8cafa" stroke-width="2"/><g data-part="clothed-adult"><g data-part="trouser-leg" data-joints="222,243 220,309 210,383" data-radii="18.5,13,8.2"><g filter="url(#silhouetteOutline)"><path d="M203.51,242.44L207.01,308.61Q219.61,321.99 232.99,309.39L240.49,243.56Q222.56,224.51 203.51,242.44Z" fill="url(#trousers)"/><path d="M207.12,307.26L201.87,381.9Q208.9,391.13 218.13,384.1L232.88,310.74Q221.74,296.12 207.12,307.26Z" fill="url(#trousers)"/><circle cx="220" cy="309" r="13" fill="url(#trousers)" /></g><path d="M233.09,243.34L227.8,309.24" fill="none" stroke="#505f83" stroke-width="3.3" stroke-linecap="round" opacity=".22"/><path d="M227.73,310.04L214.88,383.66" fill="none" stroke="#505f83" stroke-width="3.3" stroke-linecap="round" opacity=".22"/><path d="M212.85,310q6.5,-3.9 13,0" fill="none" stroke="#505f83" stroke-width="1.05" opacity=".65"/></g><g data-part="shoe" transform="translate(210,383) rotate(0) scale(1 1)"><path d="M-10,-9L5,-9L8,-3Q15,-2 21,4Q25,9 20,11L-10,11Q-15,9 -13,3Z" fill="url(#shoe)" stroke="#35374b" stroke-width="1.45"/><path d="M-12,7Q3,10 22,7L20,12H-10Z" fill="#465165"/><path d="M-4,-4L6,-1M-5,0L7,3M-6,3L5,6" stroke="#909db1" stroke-width="1.3"/><path d="M10,1Q15,0 18,4M-10,-7L-9,4" fill="none" stroke="#fff" stroke-width="1.35"/></g><g data-part="trouser-leg" data-joints="258,243 269,311 278,383" data-radii="18.5,13,8.2"><g filter="url(#silhouetteOutline)"><path d="M239.74,245.95L256.17,313.08Q271.08,323.83 281.83,308.92L276.26,240.05Q255.05,224.74 239.74,245.95Z" fill="url(#trousers)"/><path d="M256.1,312.61L269.86,384.02Q279.02,391.14 286.14,381.98L281.9,309.39Q267.39,298.1 256.1,312.61Z" fill="url(#trousers)"/><circle cx="269" cy="311" r="13" fill="url(#trousers)" /></g><path d="M268.96,241.23L276.7,309.75" fill="none" stroke="#505f83" stroke-width="3.3" stroke-linecap="round" opacity=".22"/><path d="M276.74,310.03L282.88,382.39" fill="none" stroke="#505f83" stroke-width="3.3" stroke-linecap="round" opacity=".22"/><path d="M261.85,312q6.5,-3.9 13,0" fill="none" stroke="#505f83" stroke-width="1.05" opacity=".65"/></g><g data-part="shoe" transform="translate(278,383) rotate(0) scale(1 1)"><path d="M-10,-9L5,-9L8,-3Q15,-2 21,4Q25,9 20,11L-10,11Q-15,9 -13,3Z" fill="url(#shoe)" stroke="#35374b" stroke-width="1.45"/><path d="M-12,7Q3,10 22,7L20,12H-10Z" fill="#465165"/><path d="M-4,-4L6,-1M-5,0L7,3M-6,3L5,6" stroke="#909db1" stroke-width="1.3"/><path d="M10,1Q15,0 18,4M-10,-7L-9,4" fill="none" stroke="#fff" stroke-width="1.35"/></g><path data-part="trouser-waist" d="M213,230Q240,225 267,230L268,260Q240,267 212,260Z" fill="url(#trousers)" stroke="#35374b" stroke-width="1.3"/><path d="M240,246v13M218,246l10,5M262,246l-10,5" stroke="#56688d" stroke-width="1.1" fill="none"/><clipPath id="shirtClip"><path d="M208,148Q224,134 232,138Q240,147 248,138Q256,134 272,148Q269.85,189.65 268,246Q240,256 212,246Q210.15,189.65 208,148Z"/></clipPath><path data-part="shirt-body" d="M208,148Q224,134 232,138Q240,147 248,138Q256,134 272,148Q269.85,189.65 268,246Q240,256 212,246Q210.15,189.65 208,148Z" fill="url(#shirt)" stroke="#35374b" stroke-width="1.35"/><g clip-path="url(#shirtClip)"><path d="M263,165Q247,200 263,239Q250,248 235,250Q261,179 263,165Z" fill="#7567ad" opacity=".27"/><path d="M214,241Q240,249 266,241" fill="none" stroke="#eee2f9" stroke-width="2.1"/><path d="M218,189l12,6M245,221l12,10M220,230q10,-6 20,-3" fill="none" stroke="#7869a6" stroke-width="1.15" opacity=".7"/></g><g data-part="skin-arm" data-joints="215,146 196,214 205,260" data-radii="13.2,10.2,5.7"><g filter="url(#silhouetteOutline)"><path d="M202.29,142.45L186.18,211.26Q193.26,223.82 205.82,216.74L227.71,149.55Q218.55,133.29 202.29,142.45Z" fill="url(#skin)"/><path d="M185.99,215.96L199.41,261.09Q206.09,265.59 210.59,258.91L206.01,212.04Q194.04,203.99 185.99,215.96Z" fill="url(#skin)"/><circle cx="196" cy="214" r="10.2" fill="url(#skin)" /></g><path d="M222.63,148.13L201.89,215.65" fill="none" stroke="#c9938a" stroke-width="3.3" stroke-linecap="round" opacity=".22"/><path d="M202.01,212.82L208.36,259.34" fill="none" stroke="#c9938a" stroke-width="3.3" stroke-linecap="round" opacity=".22"/><path d="M190.39,215q5.1,-3.0599999999999996 10.2,0" fill="none" stroke="#c9938a" stroke-width="1.05" opacity=".65"/></g><g data-part="shirt-sleeve" data-joints="215,146 210.915,160.62 206.82999999999998,175.24" data-radii="16,15,13.3"><g><path d="M199.59,141.69L196.47,156.58Q206.88,175.07 225.36,164.66L230.41,150.31Q219.31,130.59 199.59,141.69Z" fill="url(#shirt)"/><path d="M196.47,156.58L194.02,171.66Q203.25,188.05 219.64,178.82L225.36,164.66Q214.95,146.17 196.47,156.58Z" fill="url(#shirt)"/><circle cx="210.915" cy="160.62" r="15" fill="url(#shirt)" /></g><path d="M224.25,148.58L219.58,163.04" fill="none" stroke="#7664a4" stroke-width="3.3" stroke-linecap="round" opacity=".22"/><path d="M219.58,163.04L214.52,177.39" fill="none" stroke="#7664a4" stroke-width="3.3" stroke-linecap="round" opacity=".22"/><path d="M199.59,141.69L196.47,156.58M225.36,164.66L230.41,150.31" stroke="#35374b" stroke-width="1.25" fill="none"/><path d="M196.47,156.58L194.02,171.66M219.64,178.82L225.36,164.66M194.02,171.66Q203.25,188.05 219.64,178.82" stroke="#35374b" stroke-width="1.25" fill="none"/><path d="M202.665,161.62q7.5,-4.5 15,0" fill="none" stroke="#7664a4" stroke-width="1.05" opacity=".65"/></g><path d="M194.5021795327634,171.79546192827215Q206.82999999999998,176.74 219.15782046723658,178.68453807172787" stroke="#e9dff5" stroke-width="2.5" fill="none"/><path d="M207.76250429830205,153.32247608175703l-2.152836294829918,7.7048877920228644" stroke="#d5c6e7" stroke-width="1.1" opacity=".6"/><g data-part="skin-arm" data-joints="265,146 297,176 322,185" data-radii="13.2,10.2,5.7"><g filter="url(#silhouetteOutline)"><path d="M255.97,155.63L290.02,183.44Q304.44,182.98 303.98,168.56L274.03,136.37Q255.37,136.97 255.97,155.63Z" fill="url(#skin)"/><path d="M293.55,185.6L320.07,190.36Q327.36,186.93 323.93,179.64L300.45,166.4Q287.4,172.55 293.55,185.6Z" fill="url(#skin)"/><circle cx="297" cy="176" r="10.2" fill="url(#skin)" /></g><path d="M270.42,140.22L301.19,171.54" fill="none" stroke="#c9938a" stroke-width="3.3" stroke-linecap="round" opacity=".22"/><path d="M299.07,170.24L323.16,181.78" fill="none" stroke="#c9938a" stroke-width="3.3" stroke-linecap="round" opacity=".22"/><path d="M291.39,177q5.1,-3.0599999999999996 10.2,0" fill="none" stroke="#c9938a" stroke-width="1.05" opacity=".65"/></g><g data-part="shirt-sleeve" data-joints="265,146 271.88,152.45 278.76,158.89999999999998" data-radii="16,15,13.3"><g><path d="M254.06,157.67L261.62,163.39Q282.82,162.71 282.14,141.51L275.94,134.33Q253.33,135.06 254.06,157.67Z" fill="url(#shirt)"/><path d="M261.62,163.39L269.66,168.6Q288.46,168 287.86,149.2L282.14,141.51Q260.94,142.19 261.62,163.39Z" fill="url(#shirt)"/><circle cx="271.88" cy="152.45" r="15" fill="url(#shirt)" /></g><path d="M271.57,139L278.04,145.88" fill="none" stroke="#7664a4" stroke-width="3.3" stroke-linecap="round" opacity=".22"/><path d="M278.04,145.88L284.22,153.08" fill="none" stroke="#7664a4" stroke-width="3.3" stroke-linecap="round" opacity=".22"/><path d="M254.06,157.67L261.62,163.39M282.14,141.51L275.94,134.33" stroke="#35374b" stroke-width="1.25" fill="none"/><path d="M261.62,163.39L269.66,168.6M287.86,149.2L282.14,141.51M269.66,168.6Q288.46,168 287.86,149.2" stroke="#35374b" stroke-width="1.25" fill="none"/><path d="M263.63,153.45q7.5,-4.5 15,0" fill="none" stroke="#7664a4" stroke-width="1.05" opacity=".65"/></g><path d="M270.00555355031895,168.23807621299306Q278.76,160.39999999999998 287.51444644968103,149.5619237870069" stroke="#e9dff5" stroke-width="2.5" fill="none"/><path d="M268.1461291928541,155.8031561806324l5.836297633120681,5.471529031050638" stroke="#d5c6e7" stroke-width="1.1" opacity=".6"/><path data-part="neck" d="M233,121L232,140Q240,150 248,140L247,121Z" fill="url(#skin)" stroke="#35374b" stroke-width="1.05"/><path d="M234,127q6,6 13,0l-2,7q-7,2 -12,-2Z" fill="#c9938a" opacity=".3"/><path data-part="collar" d="M231,137L225,144L236,157L240,148L244,157L255,144L249,137Q240,148 231,137Z" fill="#f1eaf8" stroke="#716888" stroke-width="1"/><path d="M240,149L240,240" stroke="#a397c4" stroke-width="1" opacity=".7"/><circle cx="240" cy="170.25" r="1.3" fill="#f0e9fc" /><circle cx="240" cy="194.5" r="1.3" fill="#f0e9fc" /><circle cx="240" cy="218.75" r="1.3" fill="#f0e9fc" /><g data-part="head" data-center="240,105" data-direction="front" transform="rotate(0 240 105)"><path d="M219,107Q210,93 222,79Q235,69 247,76Q267,77 265,98L264,122L255,130Q240,134 222,125Z" fill="url(#hair)" stroke="#35374b" stroke-width="1.35"/><ellipse cx="221" cy="112" rx="4" ry="6" fill="#f6d9c8" stroke="#c9938a" stroke-width=".9"/><ellipse cx="259" cy="112" rx="4" ry="6" fill="#f6d9c8" stroke="#c9938a" stroke-width=".9"/><path d="M222,93Q240,82 258,93L258,114Q256,123 247,129Q240,133 233,129Q224,123 222,114Z" fill="url(#skin)" stroke="#35374b" stroke-width="1.05"/><path d="M254,98Q260,121 242,129Q257,128 258,114V99Z" fill="#c9938a" opacity=".23"/><path d="M218,109Q209,89 224,77Q238,69 248,77Q268,78 264,113L258,106L256,96Q246,86 241,97L236,102L235,93Q230,100 225,102L222,114Z" fill="url(#hair)"/><path d="M225,86Q233,77 242,81M249,82Q259,86 259,97" fill="none" stroke="#a597ac" stroke-width="1.2" opacity=".6"/><path d="M228,104q4,-2 8,0M244,104q4,-2 8,0" stroke="#4d435b" fill="none" stroke-width="1.1"/><path d="M228,109Q232,105.5 236,109Q232,113 228,109Z" fill="#fff5ee"/><path d="M228,109Q232,105.5 236,109" fill="none" stroke="#35374b" stroke-width="1.15"/><ellipse cx="232" cy="109.8" rx="2.2" ry="2.8" fill="#657488"/><ellipse cx="232" cy="109.8" rx="1.05" ry="1.6" fill="#35374b"/><circle cx="231.3" cy="108.5" r="0.7" fill="#fff" /><path d="M244,109Q248,105.5 252,109Q248,113 244,109Z" fill="#fff5ee"/><path d="M244,109Q248,105.5 252,109" fill="none" stroke="#35374b" stroke-width="1.15"/><ellipse cx="248" cy="109.8" rx="2.2" ry="2.8" fill="#657488"/><ellipse cx="248" cy="109.8" rx="1.05" ry="1.6" fill="#35374b"/><circle cx="247.3" cy="108.5" r="0.7" fill="#fff" /><path d="M240,112l-1,6 2,1M236,123q4,1.8 8,0" fill="none" stroke="#a77773" stroke-width="1"/><path d="M227,118h4M249,118h4" stroke="#eaa5a0" stroke-width="1.5" opacity=".5"/></g><g data-part="hand" data-gesture="auto" transform="translate(205,260) rotate(168.92979742206066)"><path d="M-5,7Q-7,1 -5,-5L-4,-8Q-3,-11 -1.5,-9L-1,-4L-.5,-10Q1,-13 2,-10L2,-4L3,-9Q5,-11 5.7,-8L5.5,-3L6.7,-6Q9,-8 9,-5L8,1Q8,8 3,10L-3,10Z" fill="url(#skin)" stroke="#35374b" stroke-width="1.1"/><path d="M-4,1L-8,-4Q-11,-6 -11,-2L-7,5Q-5,9 -1,9" fill="#f6d9c8" stroke="#35374b" stroke-width="1.05"/><path d="M-2,4Q2,1 5,3M-1,7L3,7" fill="none" stroke="#c9938a" stroke-width=".9"/></g><g data-part="hand" data-gesture="auto" transform="translate(322,185) rotate(109.79887635452494)"><path d="M-6,-7Q-3,-11 3,-10Q10,-7 9,2Q8,10 1,11Q-8,11 -9,3L-8,-3Z" fill="url(#skin)" stroke="#35374b" stroke-width="1.15"/><path d="M-5,-5Q0,-7 5,-5M-6,-1Q0,-4 6,-1M-5,3Q0,0 6,3M-3,7Q1,4 5,6" fill="none" stroke="#c9938a" stroke-width="1"/><path d="M-7,-5Q-12,-6 -12,-1L-8,5Q-5,7 -1,3L3,0" fill="#f6d9c8" stroke="#35374b" stroke-width="1.05"/></g></g><g data-part="hand" data-gesture="auto" transform="translate(322,185) rotate(0)"><path d="M-6,-7Q-3,-11 3,-10Q10,-7 9,2Q8,10 1,11Q-8,11 -9,3L-8,-3Z" fill="url(#skin)" stroke="#35374b" stroke-width="1.15"/><path d="M-5,-5Q0,-7 5,-5M-6,-1Q0,-4 6,-1M-5,3Q0,0 6,3M-3,7Q1,4 5,6" fill="none" stroke="#c9938a" stroke-width="1"/><path d="M-7,-5Q-12,-6 -12,-1L-8,5Q-5,7 -1,3L3,0" fill="#f6d9c8" stroke="#35374b" stroke-width="1.05"/></g><circle cx="322" cy="185" r="13" fill="none" stroke="#6de6e0" stroke-width="2"/></g><rect x="23" y="415" width="434" height="45" rx="11" fill="#29324c"/><text x="240" y="444" text-anchor="middle" font-family="Noto Sans JP,Hiragino Kaku Gothic ProN,Yu Gothic,sans-serif" font-size="22" fill="#f4e8ce">Hold flowing fabric</text></svg>