<svg xmlns="http://www.w3.org/2000/svg" width="480" height="480" viewBox="0 0 480 480" role="img" aria-labelledby="title desc"><title id="title">机に片肘をついて考える｜動作の図解</title><desc id="desc">落ち着いた中立的な服装の成人による、机に片肘をついて考えるの人体シルエット・接地・握りと動作を示す専用図解。完成イラストの作画見本ではありません。</desc><defs><linearGradient id="bg" x2="1" y2="1"><stop stop-color="#222744"/><stop offset="1" stop-color="#101929"/></linearGradient><linearGradient id="shirt" x2="1" y2="1"><stop stop-color="#b8a3ed"/><stop offset="1" stop-color="#8d86d0"/></linearGradient><linearGradient id="trousers" x2="1" y2="1"><stop stop-color="#b6b5ca"/><stop offset="1" stop-color="#8b8da6"/></linearGradient><radialGradient id="lampGlow"><stop stop-color="#ffdf87" stop-opacity=".38"/><stop offset="1" stop-color="#ffdf87" stop-opacity="0"/></radialGradient><marker id="arrow" markerWidth="8" markerHeight="8" refX="6" refY="3" orient="auto" markerUnits="strokeWidth"><path d="M0 0L6 3L0 6" fill="none" stroke="#6de6e0" stroke-width="1.3" stroke-linecap="round" stroke-linejoin="round"/></marker></defs><rect width="480" height="480" rx="28" fill="url(#bg)"/><rect x="14" y="14" width="452" height="452" rx="19" fill="none" stroke="#485379" stroke-width="1"/><rect x="165" y="25" width="149" height="32" rx="16" fill="#303654"/><text x="239" y="47" text-anchor="middle" font-family="Noto Sans JP,Hiragino Kaku Gothic ProN,Yu Gothic,sans-serif" font-size="17" fill="#f4e8ce">動作の図解</text><text x="434" y="47" text-anchor="end" font-size="17" fill="#6de6e0" font-family="sans-serif">057</text><g transform="translate(24 30) scale(.9)"><path d="M55 395H425" stroke="#3c4967" stroke-width="2"/><ellipse cx="240" cy="395" rx="101" ry="9" fill="#050a19" opacity=".4"/><rect x="298" y="215" width="135" height="13" rx="4" fill="#64749b"/><path d="M413 227V393" stroke="#64749b" stroke-width="9"/><rect x="191" y="260" width="96" height="10" fill="#64749b"/><path d="M204 270V392M274 270V392" stroke="#64749b" stroke-width="8"/><path d="M209.82,264.45 L231.19,281.53 Q252.56,298.61 253.28,340.71 L254,382.82 Q262,383 270,383.18 L272.72,337.29 Q275.44,291.39 253.81,266.47 L232.18,241.55 Q221,253 209.82,264.45Z" fill="url(#trousers)" stroke="#45415a" stroke-width="1.6" stroke-linejoin="round"/><path d="M253.81,266.47 Q275.44,291.39 272.72,337.29" fill="none" stroke="#74718a" stroke-width="4" opacity=".42" stroke-linecap="round"/><path d="M270.53646834599465,289.7928336341336q-9.72767343073946,3.067958543540906 -14.848273773617397,6.780026986945256" fill="none" stroke="#45415a" stroke-width="1.2" opacity=".48"/><g transform="translate(262,383) scale(1 1)"><path d="M-10,-8L7,-8L9,-2Q17,-1 22,5Q25,10 18,11L-11,11Q-16,9 -13,2Z" fill="#ebe9ee" stroke="#45415a" stroke-width="1.6"/><path d="M-13,7Q1,10 23,7L20,12H-10Z" fill="#8c91a7"/><path d="M-2,-4L8,-1M-4,-1L8,2M-6,2L7,5" stroke="#abb0c4" stroke-width="1.4"/><path d="M11,2Q15,0 18,4" fill="none" stroke="#fff" stroke-width="1.5"/></g><path d="M244.94,263.52 L265.8,283.72 Q286.66,303.93 290.33,343.66 L294.01,383.39 Q302,383 309.99,382.61 L309.67,339.34 Q309.34,296.07 289.2,269.28 L269.06,242.48 Q257,253 244.94,263.52Z" fill="url(#trousers)" stroke="#45415a" stroke-width="1.6" stroke-linejoin="round"/><path d="M289.2,269.28 Q309.34,296.07 309.67,339.34" fill="none" stroke="#74718a" stroke-width="4" opacity=".42" stroke-linecap="round"/><path d="M304.38955968118455,294.6135793813905q-9.638857949090633,3.336527751608296 -14.65455326196585,7.18916328178781" fill="none" stroke="#45415a" stroke-width="1.2" opacity=".48"/><g transform="translate(302,383) scale(1 1)"><path d="M-10,-8L7,-8L9,-2Q17,-1 22,5Q25,10 18,11L-11,11Q-16,9 -13,2Z" fill="#ebe9ee" stroke="#45415a" stroke-width="1.6"/><path d="M-13,7Q1,10 23,7L20,12H-10Z" fill="#8c91a7"/><path d="M-2,-4L8,-1M-4,-1L8,2M-6,2L7,5" stroke="#abb0c4" stroke-width="1.4"/><path d="M11,2Q15,0 18,4" fill="none" stroke="#fff" stroke-width="1.5"/></g><path d="M240,126L232,156Q240,166 248,156L256,126Z" fill="#f0d7cd" stroke="#45415a" stroke-width="1.3"/><path d="M213,243Q239,237 265,243L267,270Q239,277 211,270Z" fill="url(#trousers)" stroke="#45415a" stroke-width="1.5"/><path d="M211,145Q226,134 232,138Q240,150 248,138Q254,134 269,145Q278,170 272,187L267,255Q239,263 211,255L208,187Q202,170 211,145Z" fill="url(#shirt)" stroke="#45415a" stroke-width="1.7"/><path d="M232,138Q240,152 248,138" fill="none" stroke="#f3ecff" stroke-width="3"/><path d="M267,181L263,249Q247,256 239,257" fill="none" stroke="#8b80ad" stroke-width="5" opacity=".38"/><path d="M221,244q13,-7 22,-3M244,232l12,9M217,176l9,8" fill="none" stroke="#8f83aa" stroke-width="1.4" opacity=".7"/><path d="M202.48,142.49 L193.28,182.37 Q184.08,222.24 203.99,238.52 L223.91,254.79 Q228,250 232.09,245.21 L218.01,232.48 Q203.92,219.76 215.72,184.63 L227.52,149.51 Q215,146 202.48,142.49Z" fill="#f0d7cd" stroke="#45415a" stroke-width="1.6" stroke-linejoin="round"/><path d="M215.72,184.63 Q203.92,219.76 218.01,232.48" fill="none" stroke="#d6b4b0" stroke-width="4" opacity=".42" stroke-linecap="round"/><path d="M200.0777019948712,217.21694059502912q-8.434361952066174,1.0542952440082718 -13.147681866456098,3.65902467038165" fill="none" stroke="#45415a" stroke-width="1.2" opacity=".48"/><path d="M199.59,141.69 L196.88,155.08 Q194.17,168.48 191.46,181.87 L188.74,195.26 Q200.3,198.5 211.86,201.74 L216.49,188.88 Q221.13,176.02 225.77,163.17 L230.41,150.31 Q215,146 199.59,141.69Z" fill="url(#shirt)" stroke="#45415a" stroke-width="1.6" stroke-linejoin="round"/><path d="M225.77,163.17 Q221.13,176.02 216.49,188.88" fill="none" stroke="#8b80ad" stroke-width="4" opacity=".42" stroke-linecap="round"/><path d="M217.22186235595893,171.8147402630892q-11.459271834598763,-3.2085961136876575 -18.73927982363798,-3.1700775528990928" fill="none" stroke="#45415a" stroke-width="1.2" opacity=".48"/><path d="M190.67035980285817,195.8037007448003L209.9296401971418,201.1962992551997" stroke="#ddd5f0" stroke-width="2"/><g transform="translate(228,250) rotate(130.46222749209338)"><path d="M-5,7Q-7,0 -5,-6L-4,-12Q-3,-15 -1.5,-12L-1,-5L-.5,-15Q1,-18 2,-14L2,-5L3,-13Q5,-15 5.7,-11L5.5,-4L6.7,-9Q9,-11 9,-7L8,1Q8,8 3,10L-3,10Z" fill="#f0d7cd" stroke="#45415a" stroke-width="1.2"/><path d="M-4,1L-8,-4Q-11,-6 -11,-2L-7,5Q-5,9 -1,9" fill="#f0d7cd" stroke="#45415a" stroke-width="1.2"/><path d="M-2,4Q2,1 5,3M-1,7L3,7" fill="none" stroke="#d6b4b0" stroke-width="1.1"/></g><path d="M254.41,153.54 L288.17,183.39 Q321.92,213.24 296.64,173.96 L271.35,134.67 Q266,138 260.65,141.33 L281.36,176.04 Q302.08,210.76 288.83,174.61 L275.59,138.46 Q265,146 254.41,153.54Z" fill="#f0d7cd" stroke="#45415a" stroke-width="1.6" stroke-linejoin="round"/><path d="M288.83,174.61 Q302.08,210.76 281.36,176.04" fill="none" stroke="#d6b4b0" stroke-width="4" opacity=".42" stroke-linecap="round"/><path d="M305.17808959759356,214.17060785531115q8.434361952066174,1.0542952440082718 13.64382080481293,-0.31008683647302115" fill="none" stroke="#45415a" stroke-width="1.2" opacity=".48"/><path d="M251.97,155.28 L261.01,166.25 Q270.05,177.22 279.09,188.19 L288.13,199.16 Q297.9,192.2 307.67,185.24 L300.26,173.11 Q292.85,160.98 285.44,148.85 L278.03,136.72 Q265,146 251.97,155.28Z" fill="url(#shirt)" stroke="#45415a" stroke-width="1.6" stroke-linejoin="round"/><path d="M285.44,148.85 Q292.85,160.98 300.26,173.11" fill="none" stroke="#8b80ad" stroke-width="4" opacity=".42" stroke-linecap="round"/><path d="M287.12234522757626,161.3776622957039q-9.693341909787653,6.902834390303325 -14.235167505410084,12.592458302210769" fill="none" stroke="#45415a" stroke-width="1.2" opacity=".48"/><path d="M289.7543345295902,198.0007011683221L306.04566547040974,186.39929883167787" stroke="#ddd5f0" stroke-width="2"/><g transform="translate(266,138) rotate(-31.86597769360368)"><path d="M-5,7Q-7,0 -5,-6L-4,-12Q-3,-15 -1.5,-12L-1,-5L-.5,-15Q1,-18 2,-14L2,-5L3,-13Q5,-15 5.7,-11L5.5,-4L6.7,-9Q9,-11 9,-7L8,1Q8,8 3,10L-3,10Z" fill="#f0d7cd" stroke="#45415a" stroke-width="1.2"/><path d="M-4,1L-8,-4Q-11,-6 -11,-2L-7,5Q-5,9 -1,9" fill="#f0d7cd" stroke="#45415a" stroke-width="1.2"/><path d="M-2,4Q2,1 5,3M-1,7L3,7" fill="none" stroke="#d6b4b0" stroke-width="1.1"/></g><g transform="rotate(0 248 111)"><path d="M226,112Q222,84 248,83Q274,85 271,115L268,130Q248,145 228,130Z" fill="#655c72" stroke="#45415a" stroke-width="1.5"/><path d="M230,100Q248,87 266,100L266,121Q264,134 248,136Q232,134 230,121Z" fill="#f0d7cd" stroke="#45415a" stroke-width="1.2"/><path d="M226,113Q219,85 248,83Q275,83 271,116L265,104Q256,93 252,101L247,106L245,97Q236,108 226,113Z" fill="#655c72"/><circle cx="258" cy="116" r="1.8" fill="#45415a" /><path d="M264,117l7,6 -7,2M258,130l5,-1" fill="#f0d7cd" stroke="#a37d83" stroke-width="1.1"/></g><circle cx="312" cy="212" r="13" fill="none" stroke="#6de6e0" stroke-width="2"/><circle cx="309" cy="100" r="4" fill="#6de6e0" /><circle cx="329" cy="82" r="7" fill="#6de6e0" /></g><rect x="23" y="415" width="434" height="45" rx="11" fill="#29324c"/><text x="240" y="444" text-anchor="middle" font-family="Noto Sans JP,Hiragino Kaku Gothic ProN,Yu Gothic,sans-serif" font-size="22" fill="#f4e8ce">机に片肘をついて考える</text></svg>