<svg xmlns="http://www.w3.org/2000/svg" width="480" height="480" viewBox="0 0 480 480" role="img" aria-labelledby="title desc"><title id="title">傘を差す｜動作の図解</title><desc id="desc">落ち着いた中立的な服装の成人による、傘を差すの人体シルエット・接地・握りと動作を示す専用図解。完成イラストの作画見本ではありません。</desc><defs><linearGradient id="bg" x2="1" y2="1"><stop stop-color="#222744"/><stop offset="1" stop-color="#101929"/></linearGradient><linearGradient id="shirt" x2="1" y2="1"><stop stop-color="#b8a3ed"/><stop offset="1" stop-color="#8d86d0"/></linearGradient><linearGradient id="trousers" x2="1" y2="1"><stop stop-color="#b6b5ca"/><stop offset="1" stop-color="#8b8da6"/></linearGradient><radialGradient id="lampGlow"><stop stop-color="#ffdf87" stop-opacity=".38"/><stop offset="1" stop-color="#ffdf87" stop-opacity="0"/></radialGradient><marker id="arrow" markerWidth="8" markerHeight="8" refX="6" refY="3" orient="auto" markerUnits="strokeWidth"><path d="M0 0L6 3L0 6" fill="none" stroke="#6de6e0" stroke-width="1.3" stroke-linecap="round" stroke-linejoin="round"/></marker></defs><rect width="480" height="480" rx="28" fill="url(#bg)"/><rect x="14" y="14" width="452" height="452" rx="19" fill="none" stroke="#485379" stroke-width="1"/><rect x="165" y="25" width="149" height="32" rx="16" fill="#303654"/><text x="239" y="47" text-anchor="middle" font-family="Noto Sans JP,Hiragino Kaku Gothic ProN,Yu Gothic,sans-serif" font-size="17" fill="#f4e8ce">動作の図解</text><text x="434" y="47" text-anchor="end" font-size="17" fill="#6de6e0" font-family="sans-serif">065</text><g transform="translate(24 30) scale(.9)"><path d="M55 395H425" stroke="#3c4967" stroke-width="2"/><ellipse cx="240" cy="395" rx="101" ry="9" fill="#050a19" opacity=".4"/><path d="M120 108Q159 35 242 42Q322 43 358 110Q341 95 319 110Q298 95 276 110Q255 95 234 110Q213 95 192 110Q166 95 146 110Q133 95 120 108Z" fill="#8a7dcc" stroke="#f4e8ce" stroke-width="3"/><path d="M242 42Q206 65 192 110M242 42Q267 69 276 110M242 42L234 110" fill="none" stroke="#c3b2eb" stroke-width="2"/><path d="M239 37V277Q238 299 255 285" fill="none" stroke="#f4e8ce" stroke-width="5"/><path d="M178.02,276.31 L179.03,299.14 Q180.04,321.98 178.55,352.03 L177.05,382.07 Q185,383 192.95,383.93 L198.45,353.97 Q203.96,324.02 206.97,300.86 L209.98,277.69 Q194,277 178.02,276.31Z" fill="url(#trousers)" stroke="#45415a" stroke-width="1.6" stroke-linejoin="round"/><path d="M206.97,300.86 Q203.96,324.02 198.45,353.97" fill="none" stroke="#74718a" stroke-width="4" opacity=".42" stroke-linecap="round"/><path d="M200.0258399069439,320.6706451991793q-10.163431842806004,-0.8629328923137172 -16.311123690008305,0.6222892970715479" fill="none" stroke="#45415a" stroke-width="1.2" opacity=".48"/><g transform="translate(185,383) scale(1 1)"><path d="M-10,-8L7,-8L9,-2Q17,-1 22,5Q25,10 18,11L-11,11Q-16,9 -13,2Z" fill="#ebe9ee" stroke="#45415a" stroke-width="1.6"/><path d="M-13,7Q1,10 23,7L20,12H-10Z" fill="#8c91a7"/><path d="M-2,-4L8,-1M-4,-1L8,2M-6,2L7,5" stroke="#abb0c4" stroke-width="1.4"/><path d="M11,2Q15,0 18,4" fill="none" stroke="#fff" stroke-width="1.5"/></g><path d="M211.41,280.6 L219.3,305.86 Q227.19,331.12 232.63,357.57 L238.07,384.03 Q246,383 253.93,381.97 L252.37,354.43 Q250.81,326.88 246.7,300.14 L242.59,273.4 Q227,277 211.41,280.6Z" fill="url(#trousers)" stroke="#45415a" stroke-width="1.6" stroke-linejoin="round"/><path d="M246.7,300.14 Q250.81,326.88 252.37,354.43" fill="none" stroke="#74718a" stroke-width="4" opacity=".42" stroke-linecap="round"/><path d="M246.14833798025592,324.67088183113106q-10.039988340156762,1.7996205515375328 -15.592997059555344,4.826846040707997" fill="none" stroke="#45415a" stroke-width="1.2" opacity=".48"/><g transform="translate(246,383) scale(1 1)"><path d="M-10,-8L7,-8L9,-2Q17,-1 22,5Q25,10 18,11L-11,11Q-16,9 -13,2Z" fill="#ebe9ee" stroke="#45415a" stroke-width="1.6"/><path d="M-13,7Q1,10 23,7L20,12H-10Z" fill="#8c91a7"/><path d="M-2,-4L8,-1M-4,-1L8,2M-6,2L7,5" stroke="#abb0c4" stroke-width="1.4"/><path d="M11,2Q15,0 18,4" fill="none" stroke="#fff" stroke-width="1.5"/></g><path d="M203,165L203,197Q211,207 219,197L219,165Z" fill="#f0d7cd" stroke="#45415a" stroke-width="1.3"/><path d="M186,267Q210.5,261 235,267L237,294Q210.5,301 184,294Z" fill="url(#trousers)" stroke="#45415a" stroke-width="1.5"/><path d="M184,186Q197,175 203,179Q211,191 219,179Q225,175 238,186Q247,211 241,228L237,279Q210.5,287 184,279L181,228Q175,211 184,186Z" fill="url(#shirt)" stroke="#45415a" stroke-width="1.7"/><path d="M203,179Q211,193 219,179" fill="none" stroke="#f3ecff" stroke-width="3"/><path d="M236,222L233,273Q218.5,280 210.5,281" fill="none" stroke="#8b80ad" stroke-width="5" opacity=".38"/><path d="M194,268q13,-7 22,-3M214,256l12,9M190,217l9,8" fill="none" stroke="#8f83aa" stroke-width="1.4" opacity=".7"/><path d="M175.72,182.74 L168.39,208.86 Q161.05,234.98 166.94,255.62 L172.83,276.27 Q179,275 185.17,273.73 L183.06,255.38 Q180.95,237.02 190.61,214.14 L200.28,191.26 Q188,187 175.72,182.74Z" fill="#f0d7cd" stroke="#45415a" stroke-width="1.6" stroke-linejoin="round"/><path d="M190.61,214.14 Q180.95,237.02 183.06,255.38" fill="none" stroke="#d6b4b0" stroke-width="4" opacity=".42" stroke-linecap="round"/><path d="M177.77149635895177,233.67689064813925q-8.455891947405553,-0.864807130984659 -13.633430064934624,0.6161044266492011" fill="none" stroke="#45415a" stroke-width="1.2" opacity=".48"/><path d="M172.88,181.76 L170.85,190.66 Q168.82,199.56 166.79,208.46 L164.76,217.37 Q176.1,221.3 187.44,225.23 L191.36,216.99 Q195.28,208.74 199.2,200.49 L203.12,192.24 Q188,187 172.88,181.76Z" fill="url(#shirt)" stroke="#45415a" stroke-width="1.6" stroke-linejoin="round"/><path d="M199.2,200.49 Q195.28,208.74 191.36,216.99" fill="none" stroke="#8b80ad" stroke-width="4" opacity=".42" stroke-linecap="round"/><path d="M191.63060327473207,204.2984617533013q-11.24260368181981,-3.9004951549170808 -18.511445369430973,-4.305390845738925" fill="none" stroke="#45415a" stroke-width="1.2" opacity=".48"/><path d="M166.65243388082368,218.02227297906126L185.5475661191763,224.5777270209387" stroke="#ddd5f0" stroke-width="2"/><g transform="translate(179,275) rotate(168.40782458970895)"><path d="M-5,7Q-7,0 -5,-6L-4,-12Q-3,-15 -1.5,-12L-1,-5L-.5,-15Q1,-18 2,-14L2,-5L3,-13Q5,-15 5.7,-11L5.5,-4L6.7,-9Q9,-11 9,-7L8,1Q8,8 3,10L-3,10Z" fill="#f0d7cd" stroke="#45415a" stroke-width="1.2"/><path d="M-4,1L-8,-4Q-11,-6 -11,-2L-7,5Q-5,9 -1,9" fill="#f0d7cd" stroke="#45415a" stroke-width="1.2"/><path d="M-2,4Q2,1 5,3M-1,7L3,7" fill="none" stroke="#d6b4b0" stroke-width="1.1"/></g><path d="M224.11,195.44 L240.98,212.51 Q257.86,229.57 250.92,207.86 L243.98,186.14 Q239,190 234.02,193.86 L251.08,203.14 Q268.14,212.43 256.02,195.49 L243.89,178.56 Q234,187 224.11,195.44Z" fill="#f0d7cd" stroke="#45415a" stroke-width="1.6" stroke-linejoin="round"/><path d="M256.02,195.49 Q268.14,212.43 251.08,203.14" fill="none" stroke="#d6b4b0" stroke-width="4" opacity=".42" stroke-linecap="round"/><path d="M263.7717436331413,213.88280871658588q-4.373213921133975,7.288689868556627 -5.23070684684652,12.605146007974403" fill="none" stroke="#45415a" stroke-width="1.2" opacity=".48"/><path d="M221.83,197.38 L227.66,202.68 Q233.5,207.99 239.33,213.29 L245.17,218.59 Q254.3,210.8 263.43,203.01 L259.12,196.41 Q254.8,189.81 250.49,183.22 L246.17,176.62 Q234,187 221.83,197.38Z" fill="url(#shirt)" stroke="#45415a" stroke-width="1.6" stroke-linejoin="round"/><path d="M250.49,183.22 Q254.8,189.81 259.12,196.41" fill="none" stroke="#8b80ad" stroke-width="4" opacity=".42" stroke-linecap="round"/><path d="M249.12674914457943,190.71208402876968q-9.053924028313114,7.7224646123847265 -13.081868479861212,13.78675875888215" fill="none" stroke="#45415a" stroke-width="1.2" opacity=".48"/><path d="M246.69166048040915,217.2894660608275L261.90833951959087,204.31053393917247" stroke="#ddd5f0" stroke-width="2"/><g transform="translate(239,190)"><path d="M-7,-6Q-3,-12 4,-9Q11,-6 10,3Q8,11 0,10Q-9,10 -9,2Z" fill="#f0d7cd" stroke="#45415a" stroke-width="1.2"/><path d="M-6,-3Q-2,-6 5,-4M-6,0Q0,-3 7,-1M-5,4Q0,1 6,3M-3,7Q1,5 5,6" fill="none" stroke="#d6b4b0" stroke-width="1.25"/><path d="M-7,-4Q-12,-5 -12,0L-7,5Q-3,7 0,3" fill="#f0d7cd" stroke="#45415a" stroke-width="1.1"/></g><g transform="rotate(0 211 150)"><path d="M189,151Q185,123 211,122Q237,124 234,154L231,169Q211,184 191,169Z" fill="#655c72" stroke="#45415a" stroke-width="1.5"/><path d="M193,139Q211,126 229,139L229,160Q227,173 211,175Q195,173 193,160Z" fill="#f0d7cd" stroke="#45415a" stroke-width="1.2"/><path d="M189,152Q182,124 211,122Q238,122 234,155L228,143Q219,132 215,140L210,145L208,136Q199,147 189,152Z" fill="#655c72"/><path d="M199,151q4,-3 8,0M215,151q4,-3 8,0" fill="none" stroke="#45415a" stroke-width="1.4"/><circle cx="203" cy="155" r="1.8" fill="#45415a" /><circle cx="219" cy="155" r="1.8" fill="#45415a" /><path d="M211,156l-1,7 3,0M207,167q4,2 8,0" fill="none" stroke="#a37d83" stroke-width="1.2"/></g><g transform="translate(239,190)"><path d="M-7,-6Q-3,-12 4,-9Q11,-6 10,3Q8,11 0,10Q-9,10 -9,2Z" fill="#f0d7cd" stroke="#45415a" stroke-width="1.2"/><path d="M-6,-3Q-2,-6 5,-4M-6,0Q0,-3 7,-1M-5,4Q0,1 6,3M-3,7Q1,5 5,6" fill="none" stroke="#d6b4b0" stroke-width="1.25"/><path d="M-7,-4Q-12,-5 -12,0L-7,5Q-3,7 0,3" fill="#f0d7cd" stroke="#45415a" stroke-width="1.1"/></g></g><rect x="23" y="415" width="434" height="45" rx="11" fill="#29324c"/><text x="240" y="444" text-anchor="middle" font-family="Noto Sans JP,Hiragino Kaku Gothic ProN,Yu Gothic,sans-serif" font-size="22" fill="#f4e8ce">傘を差す</text></svg>